<svg xmlns="http://www.w3.org/2000/svg" width="24" height="24" viewBox="0 -0.5 41 41"><g fill="none" stroke-miterlimit="10"><path fill="#ffe236" stroke="#231f20" d="M36 33.59c3-1.36 3.53-8.34 3.53-13.59S38.94 7.77 36 6.41c-1.48-1.36-9.4-1.73-16-1.73S5.52 5.05 4 6.41C1.06 7.77.5 14.75.5 20S1.06 32.23 4 33.59c1.49 1.36 9.41 1.73 16 1.73s14.49-.32 16-1.73Z"/><path stroke="#231f20" stroke-linecap="round" d="M4.67 13c3.65 3.81 8.94 7.93 10.57 8.64a10.81 10.81 0 0 0 9.52 0c1.62-.64 6.91-4.79 10.56-8.64m-20.89 8.39l-6.96 6.97m18.1-6.97l6.97 6.97"/><path stroke="#fff" stroke-linecap="round" d="M29.05 7.53a15.4 15.4 0 0 1 5.27.92"/></g></svg>