<svg xmlns="http://www.w3.org/2000/svg" width="24" height="24" viewBox="0 0 24 24"><g fill="none" stroke="#e11d48" stroke-width="1.5"><path d="M2.5 12c0-4.478 0-6.718 1.391-8.109S7.521 2.5 12 2.5c4.478 0 6.718 0 8.109 1.391S21.5 7.521 21.5 12c0 4.478 0 6.718-1.391 8.109S16.479 21.5 12 21.5c-4.478 0-6.718 0-8.109-1.391S2.5 16.479 2.5 12Z"/><path stroke-linecap="round" stroke-linejoin="round" d="M5 12v-2a.5.5 0 0 1 .5-.5h1.25a1.25 1.25 0 1 1 0 2.5zm0 0v2.5M16 12v-2a.5.5 0 0 1 .5-.5h1.25a1.25 1.25 0 1 1 0 2.5zm0 0v2.5m-5.5-5V12m0 2.5V12m3-2.5V12m0 2.5V12m-3 0h3"/></g></svg>